<svg width="229" height="71" viewBox="0 0 229 71" fill="none" xmlns="http://www.w3.org/2000/svg">
<path d="M15.168 14.464L14.448 18.688H25.008L23.568 26.704H13.008L12.144 31.504H24.144L22.656 40H0L6 6.016H28.656L27.168 14.464H15.168ZM49.9999 19.216V28H27.6319V19.216H49.9999ZM84.5201 17.68C84.5201 19.824 84.0241 21.776 83.0321 23.536C82.0401 25.264 80.5681 26.64 78.6161 27.664C76.6961 28.688 74.3601 29.2 71.6081 29.2H67.3841V40H56.7281V6.016H71.6081C75.7681 6.016 78.9521 7.072 81.1601 9.184C83.4001 11.296 84.5201 14.128 84.5201 17.68ZM70.4081 20.8C72.6161 20.8 73.7201 19.76 73.7201 17.68C73.7201 15.6 72.6161 14.56 70.4081 14.56H67.3841V20.8H70.4081ZM114.108 26.224C114.108 26.96 114.06 27.664 113.964 28.336H96.828C96.988 30.672 97.964 31.84 99.756 31.84C100.908 31.84 101.74 31.312 102.252 30.256H113.532C113.148 32.176 112.332 33.904 111.084 35.44C109.868 36.944 108.316 38.144 106.428 39.04C104.572 39.904 102.524 40.336 100.284 40.336C97.596 40.336 95.196 39.776 93.084 38.656C91.004 37.536 89.372 35.936 88.188 33.856C87.036 31.744 86.46 29.28 86.46 26.464C86.46 23.648 87.036 21.2 88.188 19.12C89.372 17.008 91.004 15.392 93.084 14.272C95.196 13.152 97.596 12.592 100.284 12.592C102.972 12.592 105.356 13.152 107.436 14.272C109.548 15.36 111.18 16.928 112.332 18.976C113.516 21.024 114.108 23.44 114.108 26.224ZM103.308 23.68C103.308 22.784 103.02 22.112 102.444 21.664C101.868 21.184 101.148 20.944 100.284 20.944C98.396 20.944 97.292 21.856 96.972 23.68H103.308ZM153.622 12.736C157.078 12.736 159.75 13.776 161.638 15.856C163.558 17.936 164.518 20.752 164.518 24.304V40H153.91V25.648C153.91 24.496 153.558 23.6 152.854 22.96C152.182 22.288 151.27 21.952 150.118 21.952C148.934 21.952 148.006 22.288 147.334 22.96C146.662 23.6 146.326 24.496 146.326 25.648V40H135.718V25.648C135.718 24.496 135.366 23.6 134.662 22.96C133.99 22.288 133.078 21.952 131.926 21.952C130.742 21.952 129.814 22.288 129.142 22.96C128.47 23.6 128.134 24.496 128.134 25.648V40H117.478V12.928H128.134V16.576C128.902 15.424 129.942 14.496 131.254 13.792C132.598 13.088 134.166 12.736 135.958 12.736C137.91 12.736 139.638 13.168 141.142 14.032C142.646 14.864 143.846 16.048 144.742 17.584C145.734 16.176 146.998 15.024 148.534 14.128C150.07 13.2 151.766 12.736 153.622 12.736ZM174.51 10.768C172.654 10.768 171.166 10.272 170.046 9.28C168.926 8.288 168.366 7.04 168.366 5.536C168.366 4 168.926 2.736 170.046 1.744C171.166 0.719997 172.654 0.207997 174.51 0.207997C176.334 0.207997 177.806 0.719997 178.926 1.744C180.046 2.736 180.606 4 180.606 5.536C180.606 7.04 180.046 8.288 178.926 9.28C177.806 10.272 176.334 10.768 174.51 10.768ZM179.79 12.928V40H169.134V12.928H179.79ZM195.259 4.48V40H184.603V4.48H195.259ZM228.728 12.928V40H218.072V35.872C217.24 37.152 216.12 38.192 214.712 38.992C213.336 39.792 211.688 40.192 209.768 40.192C206.664 40.192 204.232 39.152 202.472 37.072C200.744 34.992 199.88 32.176 199.88 28.624V12.928H210.488V27.28C210.488 28.56 210.824 29.584 211.496 30.352C212.2 31.088 213.128 31.456 214.28 31.456C215.464 31.456 216.392 31.088 217.064 30.352C217.736 29.584 218.072 28.56 218.072 27.28V12.928H228.728ZM5.44 55.84V70H1V55.84H5.44ZM21.0253 70H16.5853L11.8853 62.88V70H7.44531V55.84H11.8853L16.5853 63.08V55.84H21.0253V70ZM28.9313 55.84C30.4113 55.84 31.7046 56.14 32.8113 56.74C33.9313 57.34 34.7913 58.1733 35.3913 59.24C35.9913 60.3067 36.2913 61.52 36.2913 62.88C36.2913 64.2267 35.9913 65.44 35.3913 66.52C34.7913 67.6 33.9313 68.4533 32.8113 69.08C31.7046 69.6933 30.4113 70 28.9313 70H23.0313V55.84H28.9313ZM28.5313 66.04C29.5313 66.04 30.3246 65.7667 30.9113 65.22C31.4979 64.6733 31.7913 63.8933 31.7913 62.88C31.7913 61.8667 31.4979 61.0867 30.9113 60.54C30.3246 59.9933 29.5313 59.72 28.5313 59.72H27.4713V66.04H28.5313ZM44.7945 70.14C43.4612 70.14 42.2345 69.8267 41.1145 69.2C40.0079 68.5733 39.1279 67.7067 38.4745 66.6C37.8212 65.4933 37.4945 64.2467 37.4945 62.86C37.4945 61.4733 37.8212 60.2267 38.4745 59.12C39.1279 58.0133 40.0079 57.1533 41.1145 56.54C42.2345 55.9133 43.4612 55.6 44.7945 55.6C46.1279 55.6 47.3479 55.9133 48.4545 56.54C49.5612 57.1533 50.4345 58.0133 51.0745 59.12C51.7279 60.2267 52.0545 61.4733 52.0545 62.86C52.0545 64.2467 51.7279 65.4933 51.0745 66.6C50.4345 67.7067 49.5545 68.5733 48.4345 69.2C47.3279 69.8267 46.1145 70.14 44.7945 70.14ZM44.7945 66C45.6745 66 46.3545 65.72 46.8345 65.16C47.3145 64.5867 47.5545 63.82 47.5545 62.86C47.5545 61.8867 47.3145 61.12 46.8345 60.56C46.3545 59.9867 45.6745 59.7 44.7945 59.7C43.9012 59.7 43.2145 59.9867 42.7345 60.56C42.2545 61.12 42.0145 61.8867 42.0145 62.86C42.0145 63.82 42.2545 64.5867 42.7345 65.16C43.2145 65.72 43.9012 66 44.7945 66ZM67.2363 70H62.7963L58.0963 62.88V70H53.6563V55.84H58.0963L62.7963 63.08V55.84H67.2363V70ZM73.6822 59.38V61.12H78.0822V64.46H73.6822V66.46H78.6822V70H69.2422V55.84H78.6822V59.38H73.6822ZM85.8955 70.14C84.2021 70.14 82.8021 69.7467 81.6955 68.96C80.6021 68.16 80.0088 66.9933 79.9155 65.46H84.6355C84.7021 66.2733 85.0621 66.68 85.7155 66.68C85.9555 66.68 86.1555 66.6267 86.3155 66.52C86.4888 66.4 86.5755 66.22 86.5755 65.98C86.5755 65.6467 86.3955 65.38 86.0355 65.18C85.6755 64.9667 85.1155 64.7267 84.3555 64.46C83.4488 64.14 82.6955 63.8267 82.0955 63.52C81.5088 63.2133 81.0021 62.7667 80.5755 62.18C80.1488 61.5933 79.9421 60.84 79.9555 59.92C79.9555 59 80.1888 58.22 80.6555 57.58C81.1355 56.9267 81.7821 56.4333 82.5955 56.1C83.4221 55.7667 84.3488 55.6 85.3755 55.6C87.1088 55.6 88.4821 56 89.4955 56.8C90.5221 57.6 91.0621 58.7267 91.1155 60.18H86.3355C86.3221 59.78 86.2221 59.4933 86.0355 59.32C85.8488 59.1467 85.6221 59.06 85.3555 59.06C85.1688 59.06 85.0155 59.1267 84.8955 59.26C84.7755 59.38 84.7155 59.5533 84.7155 59.78C84.7155 60.1 84.8888 60.3667 85.2355 60.58C85.5955 60.78 86.1621 61.0267 86.9355 61.32C87.8288 61.6533 88.5621 61.9733 89.1355 62.28C89.7221 62.5867 90.2288 63.0133 90.6555 63.56C91.0821 64.1067 91.2955 64.7933 91.2955 65.62C91.2955 66.4867 91.0821 67.2667 90.6555 67.96C90.2288 68.64 89.6088 69.1733 88.7955 69.56C87.9821 69.9467 87.0155 70.14 85.8955 70.14ZM97.2955 55.84V70H92.8555V55.84H97.2955ZM108.381 67.86H103.661L102.961 70H98.3008L103.481 55.84H108.601L113.761 70H109.081L108.381 67.86ZM107.301 64.52L106.021 60.58L104.741 64.52H107.301Z" fill="white"/>
</svg>
