<svg width="134" height="43" viewBox="0 0 134 43" fill="none" xmlns="http://www.w3.org/2000/svg">
<path d="M8.848 9.104L8.428 11.568H14.588L13.748 16.244H7.588L7.084 19.044H14.084L13.216 24H0L3.5 4.176H16.716L15.848 9.104H8.848ZM29.1666 11.876V17H16.1186V11.876H29.1666ZM49.3034 10.98C49.3034 12.2307 49.0141 13.3693 48.4354 14.396C47.8567 15.404 46.9981 16.2067 45.8594 16.804C44.7394 17.4013 43.3767 17.7 41.7714 17.7H39.3074V24H33.0914V4.176H41.7714C44.1981 4.176 46.0554 4.792 47.3434 6.024C48.6501 7.256 49.3034 8.908 49.3034 10.98ZM41.0714 12.8C42.3594 12.8 43.0034 12.1933 43.0034 10.98C43.0034 9.76667 42.3594 9.16 41.0714 9.16H39.3074V12.8H41.0714ZM66.563 15.964C66.563 16.3933 66.535 16.804 66.479 17.196H56.483C56.5763 18.5587 57.1457 19.24 58.191 19.24C58.863 19.24 59.3483 18.932 59.647 18.316H66.227C66.003 19.436 65.527 20.444 64.799 21.34C64.0897 22.2173 63.1843 22.9173 62.083 23.44C61.0003 23.944 59.8057 24.196 58.499 24.196C56.931 24.196 55.531 23.8693 54.299 23.216C53.0857 22.5627 52.1337 21.6293 51.443 20.416C50.771 19.184 50.435 17.7467 50.435 16.104C50.435 14.4613 50.771 13.0333 51.443 11.82C52.1337 10.588 53.0857 9.64533 54.299 8.992C55.531 8.33867 56.931 8.012 58.499 8.012C60.067 8.012 61.4577 8.33867 62.671 8.992C63.903 9.62667 64.855 10.5413 65.527 11.736C66.2177 12.9307 66.563 14.34 66.563 15.964ZM60.263 14.48C60.263 13.9573 60.095 13.5653 59.759 13.304C59.423 13.024 59.003 12.884 58.499 12.884C57.3977 12.884 56.7537 13.416 56.567 14.48H60.263ZM89.6129 8.096C91.6289 8.096 93.1876 8.70267 94.2889 9.916C95.4089 11.1293 95.9689 12.772 95.9689 14.844V24H89.7809V15.628C89.7809 14.956 89.5756 14.4333 89.1649 14.06C88.7729 13.668 88.2409 13.472 87.5689 13.472C86.8782 13.472 86.3369 13.668 85.9449 14.06C85.5529 14.4333 85.3569 14.956 85.3569 15.628V24H79.1689V15.628C79.1689 14.956 78.9636 14.4333 78.5529 14.06C78.1609 13.668 77.6289 13.472 76.9569 13.472C76.2662 13.472 75.7249 13.668 75.3329 14.06C74.9409 14.4333 74.7449 14.956 74.7449 15.628V24H68.5289V8.208H74.7449V10.336C75.1929 9.664 75.7996 9.12267 76.5649 8.712C77.3489 8.30133 78.2636 8.096 79.3089 8.096C80.4476 8.096 81.4556 8.348 82.3329 8.852C83.2102 9.33733 83.9102 10.028 84.4329 10.924C85.0116 10.1027 85.7489 9.43067 86.6449 8.908C87.5409 8.36667 88.5302 8.096 89.6129 8.096ZM101.798 6.948C100.715 6.948 99.8471 6.65867 99.1937 6.08C98.5404 5.50133 98.2137 4.77333 98.2137 3.896C98.2137 3 98.5404 2.26267 99.1937 1.684C99.8471 1.08667 100.715 0.787998 101.798 0.787998C102.862 0.787998 103.72 1.08667 104.374 1.684C105.027 2.26267 105.354 3 105.354 3.896C105.354 4.77333 105.027 5.50133 104.374 6.08C103.72 6.65867 102.862 6.948 101.798 6.948ZM104.878 8.208V24H98.6617V8.208H104.878ZM113.901 3.28V24H107.685V3.28H113.901ZM133.425 8.208V24H127.209V21.592C126.723 22.3387 126.07 22.9453 125.249 23.412C124.446 23.8787 123.485 24.112 122.365 24.112C120.554 24.112 119.135 23.5053 118.109 22.292C117.101 21.0787 116.597 19.436 116.597 17.364V8.208H122.785V16.58C122.785 17.3267 122.981 17.924 123.373 18.372C123.783 18.8013 124.325 19.016 124.997 19.016C125.687 19.016 126.229 18.8013 126.621 18.372C127.013 17.924 127.209 17.3267 127.209 16.58V8.208H133.425ZM3.264 33.504V42H0.6V33.504H3.264ZM12.6152 42H9.95119L7.13119 37.728V42H4.46719V33.504H7.13119L9.95119 37.848V33.504H12.6152V42ZM17.3588 33.504C18.2468 33.504 19.0228 33.684 19.6868 34.044C20.3588 34.404 20.8748 34.904 21.2348 35.544C21.5948 36.184 21.7748 36.912 21.7748 37.728C21.7748 38.536 21.5948 39.264 21.2348 39.912C20.8748 40.56 20.3588 41.072 19.6868 41.448C19.0228 41.816 18.2468 42 17.3588 42H13.8188V33.504H17.3588ZM17.1188 39.624C17.7188 39.624 18.1948 39.46 18.5468 39.132C18.8988 38.804 19.0748 38.336 19.0748 37.728C19.0748 37.12 18.8988 36.652 18.5468 36.324C18.1948 35.996 17.7188 35.832 17.1188 35.832H16.4828V39.624H17.1188ZM26.8767 42.084C26.0767 42.084 25.3407 41.896 24.6687 41.52C24.0047 41.144 23.4767 40.624 23.0847 39.96C22.6927 39.296 22.4967 38.548 22.4967 37.716C22.4967 36.884 22.6927 36.136 23.0847 35.472C23.4767 34.808 24.0047 34.292 24.6687 33.924C25.3407 33.548 26.0767 33.36 26.8767 33.36C27.6767 33.36 28.4087 33.548 29.0727 33.924C29.7367 34.292 30.2607 34.808 30.6447 35.472C31.0367 36.136 31.2327 36.884 31.2327 37.716C31.2327 38.548 31.0367 39.296 30.6447 39.96C30.2607 40.624 29.7327 41.144 29.0607 41.52C28.3967 41.896 27.6687 42.084 26.8767 42.084ZM26.8767 39.6C27.4047 39.6 27.8127 39.432 28.1007 39.096C28.3887 38.752 28.5327 38.292 28.5327 37.716C28.5327 37.132 28.3887 36.672 28.1007 36.336C27.8127 35.992 27.4047 35.82 26.8767 35.82C26.3407 35.82 25.9287 35.992 25.6407 36.336C25.3527 36.672 25.2087 37.132 25.2087 37.716C25.2087 38.292 25.3527 38.752 25.6407 39.096C25.9287 39.432 26.3407 39.6 26.8767 39.6ZM40.3418 42H37.6778L34.8578 37.728V42H32.1938V33.504H34.8578L37.6778 37.848V33.504H40.3418V42ZM44.2093 35.628V36.672H46.8493V38.676H44.2093V39.876H47.2093V42H41.5453V33.504H47.2093V35.628H44.2093ZM51.5373 42.084C50.5213 42.084 49.6813 41.848 49.0173 41.376C48.3613 40.896 48.0053 40.196 47.9493 39.276H50.7813C50.8213 39.764 51.0373 40.008 51.4293 40.008C51.5733 40.008 51.6933 39.976 51.7893 39.912C51.8933 39.84 51.9453 39.732 51.9453 39.588C51.9453 39.388 51.8373 39.228 51.6213 39.108C51.4053 38.98 51.0693 38.836 50.6133 38.676C50.0693 38.484 49.6173 38.296 49.2573 38.112C48.9053 37.928 48.6013 37.66 48.3453 37.308C48.0893 36.956 47.9653 36.504 47.9733 35.952C47.9733 35.4 48.1133 34.932 48.3933 34.548C48.6813 34.156 49.0693 33.86 49.5573 33.66C50.0533 33.46 50.6093 33.36 51.2253 33.36C52.2653 33.36 53.0893 33.6 53.6973 34.08C54.3133 34.56 54.6373 35.236 54.6693 36.108H51.8013C51.7933 35.868 51.7333 35.696 51.6213 35.592C51.5093 35.488 51.3733 35.436 51.2133 35.436C51.1013 35.436 51.0093 35.476 50.9373 35.556C50.8653 35.628 50.8293 35.732 50.8293 35.868C50.8293 36.06 50.9333 36.22 51.1413 36.348C51.3573 36.468 51.6973 36.616 52.1613 36.792C52.6973 36.992 53.1373 37.184 53.4813 37.368C53.8333 37.552 54.1373 37.808 54.3933 38.136C54.6493 38.464 54.7773 38.876 54.7773 39.372C54.7773 39.892 54.6493 40.36 54.3933 40.776C54.1373 41.184 53.7653 41.504 53.2773 41.736C52.7893 41.968 52.2093 42.084 51.5373 42.084ZM58.3773 33.504V42H55.7133V33.504H58.3773ZM65.0285 40.716H62.1965L61.7765 42H58.9805L62.0885 33.504H65.1605L68.2565 42H65.4485L65.0285 40.716ZM64.3805 38.712L63.6125 36.348L62.8445 38.712H64.3805Z" fill="#EB4D4B"/>
</svg>
